<?xml version="1.0" encoding="utf-8"?>
<!-- Generator: Adobe Illustrator 24.1.0, SVG Export Plug-In . SVG Version: 6.00 Build 0)  -->
<svg version="1.1" id="Camada_1" xmlns="http://www.w3.org/2000/svg" xmlns:xlink="http://www.w3.org/1999/xlink" x="0px" y="0px"
	 viewBox="0 0 155.37 155.37" style="enable-background:new 0 0 155.37 155.37;" xml:space="preserve">
<style type="text/css">
	.st0{fill:#E1A735;}
</style>
<path class="st0" d="M75.13,68.06c-11.23-2.92-14.84-5.94-14.84-10.64c0-5.39,5-9.15,13.36-9.15c8.81,0,12.07,4.21,12.37,10.39
	h10.93c-0.35-8.51-5.54-16.33-15.88-18.85V28.98H66.22v10.69c-9.6,2.08-17.32,8.31-17.32,17.86c0,11.43,9.45,17.12,23.25,20.43
	c12.37,2.97,14.84,7.32,14.84,11.92c0,3.41-2.42,8.86-13.36,8.86c-10.19,0-14.2-4.55-14.74-10.39H48.01
	c0.59,10.83,8.71,16.92,18.21,18.95v10.74h14.84V107.4c9.65-1.83,17.32-7.42,17.32-17.56C98.38,75.78,86.36,70.98,75.13,68.06z"/>
</svg>
