<svg width="402" height="277" viewBox="0 0 402 277" fill="none" xmlns="http://www.w3.org/2000/svg">
<ellipse cx="201" cy="131" rx="201" ry="122" fill="white"/>
<path d="M340 69.25H63V230.833H340V69.25Z" fill="#27AE60"/>
<path d="M340 57.7083H63V219.292H340V57.7083Z" fill="#2ECC71"/>
<path d="M340 46.1667H63V207.75H340V46.1667Z" fill="#27AE60"/>
<path d="M340 34.625H63V196.208H340V34.625Z" fill="#2ECC71"/>
<path d="M120.708 46.1667C120.709 46.1667 120.708 46.1667 120.708 46.1667C120.708 71.5584 100.038 92.3334 74.5417 92.3334V137.346C100.038 137.346 120.708 158.121 120.708 184.667H282.292V183.513C282.292 158.121 302.963 137.346 328.458 137.346V92.3334C302.963 92.3334 282.292 71.5584 282.292 46.1667H120.708Z" fill="#ECF0F1"/>
<path d="M247.667 115.417C247.667 147.283 226.996 173.125 201.5 173.125C176.003 173.125 155.333 147.283 155.333 115.417C155.333 83.5455 176.003 57.7083 201.5 57.7083C226.996 57.7083 247.667 83.5455 247.667 115.417Z" fill="#2ECC71"/>
<path d="M178.413 88.8569L206.943 81.1157H209.796V137.887C209.796 141.757 210.055 144.338 210.573 145.628C211.151 146.918 212.301 146.917 214.032 148.208H224.578V150.789H180.486V148.208H191.207C192.821 146.917 193.945 146.918 194.58 145.628C195.213 144.338 195.53 141.757 195.53 137.887V101.759C195.53 96.5983 195.242 92.7285 194.666 91.4383C194.261 90.1481 193.513 90.1471 192.418 88.8569H188.613C186.482 88.8569 183.514 88.8566 179.709 90.1468L178.413 88.8569Z" fill="#ECF0F1"/>
<path d="M109.169 230.54C99.0704 230.54 90.218 232.873 83.9164 236.311H74.5446V239.557V241.361V242.082V242.804V247.853C74.5446 257.416 90.0449 265.166 109.169 265.166C128.294 265.166 143.794 257.416 143.794 247.853V242.804V242.082V241.361V239.557V236.311H134.422C128.12 232.873 119.268 230.54 109.169 230.54Z" fill="#F39C12"/>
<path d="M143.792 236.172C143.792 245.733 128.292 253.485 109.168 253.485C90.0434 253.485 74.5431 245.733 74.5431 236.172C74.5431 226.611 90.0434 218.859 109.168 218.859C128.292 218.859 143.792 226.611 143.792 236.172Z" fill="#F1C40F"/>
<path d="M109.169 207.457C99.0704 207.457 90.218 209.79 83.9164 213.228H74.5446V216.474V218.278V218.999V219.72V224.77C74.5446 234.332 90.0449 242.083 109.169 242.083C128.294 242.083 143.794 234.332 143.794 224.77V219.72V218.999V218.278V216.474V213.228H134.422C128.12 209.79 119.268 207.457 109.169 207.457Z" fill="#F39C12"/>
<path d="M143.792 213.087C143.792 222.648 128.292 230.4 109.168 230.4C90.0434 230.4 74.5431 222.648 74.5431 213.087C74.5431 203.526 90.0434 195.774 109.168 195.774C128.292 195.774 143.792 203.526 143.792 213.087Z" fill="#F1C40F"/>
<path d="M109.169 184.375C99.0704 184.375 90.218 186.708 83.9164 190.146H74.5446V193.392V195.195V195.917V196.638V201.688C74.5446 211.25 90.0449 219.001 109.169 219.001C128.294 219.001 143.794 211.25 143.794 201.688V196.638V195.917V195.195V193.392V190.146H134.422C128.12 186.708 119.268 184.375 109.169 184.375Z" fill="#F39C12"/>
<path d="M143.792 190.007C143.792 199.568 128.292 207.32 109.168 207.32C90.0434 207.32 74.5431 199.568 74.5431 190.007C74.5431 180.445 90.0434 172.694 109.168 172.694C128.292 172.694 143.792 180.445 143.792 190.007Z" fill="#F1C40F"/>
<path d="M109.169 161.292C99.0704 161.292 90.218 163.624 83.9164 167.063H74.5446V170.308V172.112V172.834V173.555V178.605C74.5446 188.167 90.0449 195.917 109.169 195.917C128.294 195.917 143.794 188.167 143.794 178.605V173.555V172.834V172.112V170.308V167.063H134.422C128.12 163.624 119.268 161.292 109.169 161.292Z" fill="#F39C12"/>
<path d="M143.792 166.922C143.792 176.483 128.292 184.235 109.168 184.235C90.0434 184.235 74.5431 176.483 74.5431 166.922C74.5431 157.361 90.0434 149.609 109.168 149.609C128.292 149.609 143.792 157.361 143.792 166.922Z" fill="#F1C40F"/>
<path d="M189.952 230.54C179.854 230.54 171.001 232.873 164.699 236.311H155.328V239.557V241.361V242.082V242.804V247.853C155.328 257.416 170.828 265.166 189.952 265.166C209.077 265.166 224.577 257.416 224.577 247.853V242.804V242.082V241.361V239.557V236.311H215.205C208.904 232.873 200.051 230.54 189.952 230.54Z" fill="#F39C12"/>
<path d="M224.576 236.172C224.576 245.733 209.075 253.485 189.951 253.485C170.827 253.485 155.326 245.733 155.326 236.172C155.326 226.611 170.827 218.859 189.951 218.859C209.075 218.859 224.576 226.611 224.576 236.172Z" fill="#F1C40F"/>
<path d="M213.036 219.006C202.937 219.006 194.085 221.338 187.783 224.777H178.411V228.022V229.826V230.548V231.269V236.319C178.411 245.881 193.912 253.631 213.036 253.631C232.16 253.631 247.661 245.881 247.661 236.319V231.269V230.548V229.826V228.022V224.777H238.289C231.987 221.338 223.135 219.006 213.036 219.006Z" fill="#F39C12"/>
<path d="M247.659 224.636C247.659 234.197 232.159 241.949 213.034 241.949C193.91 241.949 178.41 234.197 178.41 224.636C178.41 215.075 193.91 207.323 213.034 207.323C232.159 207.323 247.659 215.075 247.659 224.636Z" fill="#F1C40F"/>
<path d="M109.169 138.208C99.0704 138.208 90.218 140.541 83.9164 143.979H74.5446V147.225V149.029V149.75V150.472V155.521C74.5446 165.084 90.0449 172.834 109.169 172.834C128.294 172.834 143.794 165.084 143.794 155.521V150.472V149.75V149.029V147.225V143.979H134.422C128.12 140.541 119.268 138.208 109.169 138.208Z" fill="#F39C12"/>
<path d="M143.792 143.839C143.792 153.4 128.292 161.152 109.168 161.152C90.0434 161.152 74.5431 153.4 74.5431 143.839C74.5431 134.277 90.0434 126.526 109.168 126.526C128.292 126.526 143.792 134.277 143.792 143.839Z" fill="#F1C40F"/>
</svg>
