<svg width="100" height="100" viewBox="0 0 100 100" fill="none" xmlns="http://www.w3.org/2000/svg">
<path d="M100 77.168C100 89.7852 89.7852 100 77.168 100H22.832C10.2148 100 0 89.7852 0 77.168V22.8516C0 10.2344 10.2344 0 22.8516 0H76.8164C89.6289 0 100 10.3711 100 23.1836V77.168Z" fill="url(#paint0_radial)"/>
<path d="M63.9063 13.7891H36.0938C23.7695 13.7891 13.7695 23.7891 13.7695 36.1133V63.9063C13.7695 76.2305 23.75 86.2109 36.0938 86.2109H63.8867C76.2109 86.2109 86.1914 76.2305 86.1914 63.9063V36.1133C86.2109 23.7695 76.2305 13.7891 63.9063 13.7891ZM79.2578 61.2305C79.2578 71.1914 71.1914 79.2578 61.2305 79.2578H38.7695C28.8086 79.2578 20.7422 71.1914 20.7422 61.2305V38.7695C20.7422 28.8086 28.8086 20.7422 38.7695 20.7422H61.2305C71.1914 20.7422 79.2578 28.8281 79.2578 38.7695V61.2305Z" fill="white"/>
<path d="M50.9766 31.0547C40.4297 31.0547 31.8945 39.5898 31.8945 50.1367C31.8945 60.6641 40.4297 69.2188 50.9766 69.2188C61.5039 69.2188 70.0586 60.6836 70.0586 50.1367C70.0391 39.5898 61.5039 31.0547 50.9766 31.0547ZM50.9766 61.6016C44.6289 61.6016 39.4922 56.4648 39.4922 50.1172C39.4922 43.7695 44.6289 38.6328 50.9766 38.6328C57.3047 38.6328 62.4609 43.7695 62.4609 50.1172C62.4414 56.4648 57.3047 61.6016 50.9766 61.6016Z" fill="white"/>
<path d="M73.5742 30.7617C73.5742 33.4375 71.4062 35.6055 68.7305 35.6055C66.0547 35.6055 63.8867 33.4375 63.8867 30.7617C63.8867 28.0859 66.0547 25.8984 68.7305 25.8984C71.4062 25.8984 73.5742 28.0664 73.5742 30.7617Z" fill="white"/>
<defs>
<radialGradient id="paint0_radial" cx="0" cy="0" r="1" gradientUnits="userSpaceOnUse" gradientTransform="translate(29.2907 107.742) scale(132.515 132.511)">
<stop offset="0.0969388" stop-color="#FFD87A"/>
<stop offset="0.1426" stop-color="#FCCE78"/>
<stop offset="0.2263" stop-color="#F5B471"/>
<stop offset="0.3378" stop-color="#EB8D65"/>
<stop offset="0.449" stop-color="#E36058"/>
<stop offset="0.6786" stop-color="#CD3694"/>
<stop offset="1" stop-color="#6668B0"/>
</radialGradient>
</defs>
</svg>
