<svg width="332" height="307" viewBox="0 0 332 307" fill="none" xmlns="http://www.w3.org/2000/svg">
<ellipse cx="166" cy="156.5" rx="166" ry="121.5" fill="white"/>
<path d="M262.438 105.531C262.438 129.803 253.323 152.924 236.822 170.769C228.572 179.595 224.063 190.532 224.063 201.469C224.063 206.745 219.745 211.062 214.469 211.062H118.531C113.255 211.062 108.938 206.745 108.938 201.469C108.938 190.532 104.428 179.595 96.1779 170.769C79.4847 152.828 70.3707 129.324 70.5625 104.86C70.9463 53.725 112.775 11.0328 163.814 9.59375H166.5C219.362 9.59375 262.438 52.6697 262.438 105.531Z" fill="#FFB841"/>
<path d="M204.875 259.031C204.875 262.389 204.491 265.555 203.628 268.625C199.407 285.222 184.344 297.406 166.5 297.406C148.656 297.406 133.593 285.222 129.372 268.625C128.509 265.555 128.125 262.389 128.125 259.031C128.125 253.755 132.442 249.438 137.719 249.438H195.281C200.558 249.438 204.875 253.755 204.875 259.031Z" fill="#624F81"/>
<path d="M224.062 201.469V249.438C224.062 259.991 215.428 268.625 204.875 268.625H128.125C117.572 268.625 108.938 259.991 108.938 249.438V201.469C108.938 196.192 113.255 191.875 118.531 191.875H214.469C219.745 191.875 224.062 196.192 224.062 201.469Z" fill="#BF4D48"/>
<path d="M224.062 220.656H108.938V239.844H224.062V220.656Z" fill="#DB5E5B"/>
</svg>
