<svg width="322" height="322" viewBox="0 0 322 322" fill="none" xmlns="http://www.w3.org/2000/svg">
<ellipse cx="163" cy="160.5" rx="159" ry="128.5" fill="white"/>
<path d="M230.981 56.1953V39.9047C230.981 28.9806 221.323 20.125 209.409 20.125H136.185C111.039 20.125 90.3608 37.66 87.8969 60.1222C82.8265 67.8299 80.8551 77.1685 82.3774 86.268L85.5013 104.918H236.5L239.6 86.5825C241.516 75.254 238.006 64.4474 230.981 56.1953Z" fill="url(#paint0_linear)"/>
<path d="M210.449 222.237H111.551C105.057 222.237 98.6267 223.516 92.6272 226.001C86.6277 228.486 81.1764 232.128 76.5846 236.72C71.9928 241.312 68.3504 246.763 65.8654 252.763C63.3803 258.762 62.1013 265.193 62.1013 271.686C62.1013 282.61 64.3058 287.726 81.8811 291.466C81.8811 291.466 141.05 301.875 161 301.875C180.95 301.875 240.119 291.466 240.119 291.466C257.694 287.726 259.899 282.61 259.899 271.686C259.899 265.193 258.62 258.762 256.135 252.763C253.65 246.763 250.007 241.312 245.415 236.72C240.824 232.128 235.372 228.486 229.373 226.001C223.373 223.516 216.943 222.237 210.449 222.237Z" fill="url(#paint1_linear)"/>
<path d="M161 251.907C153.131 251.907 145.585 248.781 140.02 243.217C134.456 237.652 131.33 230.106 131.33 222.237V202.458H190.67V222.237C190.67 230.106 187.544 237.653 181.979 243.217C176.415 248.781 168.869 251.907 161 251.907Z" fill="url(#paint2_linear)"/>
<path d="M229.452 158.759C229.624 157.736 230.111 156.792 230.845 156.058C231.579 155.325 232.523 154.839 233.546 154.667C238.13 153.853 242.284 151.462 245.29 147.908C248.296 144.354 249.966 139.861 250.009 135.206V120.371C249.965 115.697 248.281 111.186 245.251 107.626C242.221 104.066 238.038 101.682 233.431 100.89C232.442 100.721 231.527 100.261 230.801 99.5692C230.076 98.8771 229.573 97.9842 229.358 97.0048C227.39 88.2088 222.487 80.3444 215.456 74.7052C208.425 69.066 199.683 65.9878 190.67 65.9771H131.331C122.317 65.9878 113.576 69.066 106.545 74.7052C99.5131 80.3444 94.6104 88.2088 92.6428 97.0048C92.4276 97.9842 91.925 98.8771 91.1995 99.5692C90.4739 100.261 89.5584 100.721 88.5699 100.89C83.9626 101.682 79.7793 104.066 76.7496 107.626C73.7199 111.186 72.036 115.697 71.9915 120.371V135.206C72.0351 139.861 73.7044 144.354 76.7106 147.907C79.7168 151.461 83.8708 153.852 88.4536 154.667C89.477 154.838 90.4213 155.325 91.1552 156.058C91.8891 156.792 92.3759 157.736 92.5478 158.759C96.0107 180.368 109.579 219.27 161 219.27C212.421 219.27 225.989 180.368 229.452 158.759Z" fill="url(#paint3_linear)"/>
<path d="M137.559 130.113C141.406 126.266 141.406 120.029 137.559 116.182C133.712 112.334 127.474 112.334 123.627 116.182C119.78 120.029 119.78 126.266 123.627 130.113C127.474 133.961 133.712 133.96 137.559 130.113Z" fill="url(#paint4_linear)"/>
<path d="M198.377 130.113C202.224 126.266 202.224 120.029 198.377 116.182C194.53 112.334 188.292 112.334 184.445 116.182C180.598 120.029 180.598 126.266 184.445 130.113C188.292 133.961 194.53 133.961 198.377 130.113Z" fill="url(#paint5_linear)"/>
<path d="M219.087 156.194L228.505 99.6622C229.187 95.5618 235.393 96.589 234.708 100.696L225.29 157.228L219.087 156.194Z" fill="url(#paint6_linear)"/>
<path d="M96.7103 157.228L87.2922 100.696C86.6087 96.5955 92.81 95.5523 93.4953 99.6623L102.914 156.194L96.7103 157.228Z" fill="url(#paint7_linear)"/>
<path d="M231.607 155.438H202.851C192.227 155.438 182.016 151.969 173.099 146.193C169.201 143.669 159.119 139.567 148.89 146.193C139.972 151.969 129.762 155.438 119.137 155.438H90.4045C90.9587 158.813 97.4444 219.27 161 219.27C212.91 219.27 227.492 180.675 231.607 155.438Z" fill="url(#paint8_radial)"/>
<defs>
<linearGradient id="paint0_linear" x1="59.4923" y1="-18.3042" x2="215.776" y2="118.571" gradientUnits="userSpaceOnUse">
<stop offset="0.5028" stop-color="#444241"/>
<stop offset="0.5565" stop-color="#42403F"/>
<stop offset="1" stop-color="#353433"/>
</linearGradient>
<linearGradient id="paint1_linear" x1="161" y1="301.875" x2="161" y2="222.237" gradientUnits="userSpaceOnUse">
<stop stop-color="#718FDB"/>
<stop offset="0.2012" stop-color="#7692DF"/>
<stop offset="1" stop-color="#859AEC"/>
</linearGradient>
<linearGradient id="paint2_linear" x1="161" y1="251.907" x2="161" y2="202.457" gradientUnits="userSpaceOnUse">
<stop stop-color="#FFD5B3"/>
<stop offset="0.7336" stop-color="#E29E86"/>
</linearGradient>
<linearGradient id="paint3_linear" x1="59.1766" y1="8.13403" x2="172.242" y2="146.519" gradientUnits="userSpaceOnUse">
<stop stop-color="#FFD5B3"/>
<stop offset="0.5522" stop-color="#FED3B2"/>
<stop offset="0.7511" stop-color="#FACCAD"/>
<stop offset="0.8924" stop-color="#F3C1A4"/>
<stop offset="1" stop-color="#EAB198"/>
</linearGradient>
<linearGradient id="paint4_linear" x1="3798.73" y1="3498.99" x2="4228.85" y2="3990.56" gradientUnits="userSpaceOnUse">
<stop offset="0.5028" stop-color="#444241"/>
<stop offset="0.5565" stop-color="#42403F"/>
<stop offset="1" stop-color="#353433"/>
</linearGradient>
<linearGradient id="paint5_linear" x1="5568.37" y1="3310.15" x2="6050.42" y2="3832.81" gradientUnits="userSpaceOnUse">
<stop offset="0.5028" stop-color="#444241"/>
<stop offset="0.5565" stop-color="#42403F"/>
<stop offset="1" stop-color="#353433"/>
</linearGradient>
<linearGradient id="paint6_linear" x1="219.087" y1="127.14" x2="234.761" y2="127.14" gradientUnits="userSpaceOnUse">
<stop stop-color="#97B9C1"/>
<stop offset="0.6212" stop-color="#A6C1C8"/>
<stop offset="1" stop-color="#B2C8CE"/>
</linearGradient>
<linearGradient id="paint7_linear" x1="87.2395" y1="127.14" x2="102.913" y2="127.14" gradientUnits="userSpaceOnUse">
<stop stop-color="#B2C8CE"/>
<stop offset="0.3788" stop-color="#A6C1C8"/>
<stop offset="1" stop-color="#97B9C1"/>
</linearGradient>
<radialGradient id="paint8_radial" cx="0" cy="0" r="1" gradientUnits="userSpaceOnUse" gradientTransform="translate(161.006 113.329) scale(96.2983)">
<stop stop-color="#EAF5FB"/>
<stop offset="0.4314" stop-color="#E7F3F9"/>
<stop offset="0.7156" stop-color="#DEEBF1"/>
<stop offset="0.9569" stop-color="#D0DFE5"/>
<stop offset="1" stop-color="#CCDCE2"/>
</radialGradient>
</defs>
</svg>
