<svg width="743" height="588" viewBox="0 0 743 588" fill="none" xmlns="http://www.w3.org/2000/svg">
<ellipse cx="353" cy="294" rx="353" ry="294" fill="white"/>
<path d="M362.707 518C340.153 518 321.868 498.926 321.868 475.397C321.868 451.867 340.153 432.793 362.707 432.793C385.262 432.793 403.546 451.867 403.546 475.397C403.546 498.926 385.262 518 362.707 518Z" fill="#575757"/>
<path d="M379.481 514.238C371.923 517.792 363.507 518.861 355.352 517.304C347.198 515.747 339.691 511.638 333.829 505.523C327.967 499.408 324.028 491.576 322.535 483.069C321.043 474.562 322.068 465.783 325.474 457.899C329.408 471.162 336.382 483.225 345.793 493.042C355.204 502.859 366.767 510.135 379.481 514.238V514.238Z" fill="#4A4A4A"/>
<path d="M362.707 487.569C356.263 487.569 351.039 482.119 351.039 475.397C351.039 468.674 356.263 463.224 362.707 463.224C369.152 463.224 374.376 468.674 374.376 475.397C374.376 482.119 369.152 487.569 362.707 487.569Z" fill="#6E6E6E"/>
<path d="M292.698 274.552V298.897H304.366C307.461 298.897 310.428 297.614 312.617 295.331C314.805 293.049 316.034 289.952 316.034 286.724C316.034 283.496 314.805 280.4 312.617 278.117C310.428 275.834 307.461 274.552 304.366 274.552H292.698Z" fill="#FDA5A3"/>
<path d="M205.185 274.552H292.698V298.897H205.185V274.552Z" fill="#00659D"/>
<path d="M303.052 262.379H337.198C341.517 262.379 345.78 263.393 349.673 265.344C353.566 267.296 356.988 270.136 359.686 273.655V273.655C363.833 279.062 366.062 285.798 365.995 292.723C365.929 299.648 363.571 306.336 359.322 311.656L349.591 323.837C348.261 325.501 347.382 327.506 347.043 329.644C346.704 331.783 346.919 333.976 347.664 335.999L374.376 408.448H333.537L291.983 278.401C291.398 276.571 291.239 274.623 291.518 272.716C291.796 270.809 292.505 268.999 293.587 267.434C294.668 265.87 296.09 264.595 297.735 263.717C299.381 262.838 301.203 262.379 303.052 262.379V262.379Z" fill="#5CA4CC"/>
<path d="M257.693 420.621H266.444C270.312 420.621 274.022 422.224 276.757 425.077C279.493 427.931 281.029 431.801 281.029 435.836C281.029 439.872 279.493 443.742 276.757 446.595C274.022 449.449 270.312 451.052 266.444 451.052H243.107C239.239 451.052 235.529 449.449 232.794 446.595C230.059 443.742 228.522 439.872 228.522 435.836V396.276C228.522 391.433 226.678 386.789 223.396 383.365C220.113 379.941 215.661 378.017 211.02 378.017H181.849C178.754 378.017 175.786 376.735 173.598 374.452C171.41 372.169 170.18 369.073 170.18 365.845V329.328H216.854V341.5C216.854 344.728 218.083 347.824 220.271 350.107C222.459 352.39 225.427 353.672 228.522 353.672H234.356C240.545 353.672 246.481 356.237 250.858 360.803C255.234 365.368 257.693 371.561 257.693 378.017V420.621Z" fill="#575757"/>
<path d="M177.016 261.335L178.431 259.858C179.515 258.728 180.374 257.386 180.961 255.909C181.547 254.433 181.849 252.85 181.849 251.251V201.517H240.19V221.552C240.19 226.418 238.793 231.172 236.178 235.201C233.563 239.23 229.851 242.349 225.521 244.156L218.354 247.146C216.189 248.05 214.333 249.609 213.026 251.624C211.718 253.638 211.02 256.015 211.02 258.448V268.466L216.854 274.552V329.328H170.18V278.549C170.181 272.093 172.639 265.901 177.016 261.335V261.335Z" fill="#FDA5A3"/>
<path d="M188.628 201.517L232.467 239.628C230.427 241.554 228.075 243.087 225.521 244.156L221.418 245.868L181.849 211.468V201.517H188.628Z" fill="#46C89D"/>
<path d="M177.016 261.335L178.432 259.858C180.62 257.575 181.849 254.479 181.849 251.251V250.207H188.684C190.216 250.207 191.734 250.522 193.149 251.133C194.565 251.745 195.851 252.642 196.935 253.772L216.854 274.552V329.328H170.181V278.551C170.181 272.094 172.639 265.901 177.016 261.335V261.335Z" fill="#00659D"/>
<path d="M88.5024 268.466H158.512C164.956 268.466 170.18 273.915 170.18 280.638V365.845C170.18 372.567 164.956 378.017 158.512 378.017H88.5024C82.0581 378.017 76.8341 372.567 76.8341 365.845V280.638C76.8341 273.915 82.0581 268.466 88.5024 268.466Z" fill="#00B378"/>
<path d="M170.18 292.81H76.8341V280.638C76.8341 277.41 78.0634 274.314 80.2516 272.031C82.4398 269.748 85.4077 268.466 88.5024 268.466H158.512C161.607 268.466 164.575 269.748 166.763 272.031C168.951 274.314 170.18 277.41 170.18 280.638V292.81Z" fill="#00A16C"/>
<path d="M94.3366 231.948H141.01V244.121H94.3366V231.948Z" fill="#CBE2EF"/>
<path d="M82.6683 207.603H129.341V219.776H82.6683V207.603Z" fill="#CBE2EF"/>
<path d="M71 183.259H106.005V195.431H71V183.259Z" fill="#CBE2EF"/>
<path d="M228.522 420.621H266.444C270.312 420.621 274.022 422.224 276.757 425.077C279.493 427.931 281.029 431.801 281.029 435.836C281.029 439.872 279.493 443.742 276.757 446.595C274.022 449.449 270.312 451.052 266.444 451.052H243.107C239.239 451.052 235.529 449.449 232.794 446.595C230.059 443.742 228.522 439.872 228.522 435.836V420.621Z" fill="#00659D"/>
<path d="M94.3365 378.017H211.02C213.318 378.017 215.594 378.49 217.717 379.407C219.841 380.325 221.77 381.67 223.396 383.365C225.021 385.061 226.31 387.073 227.19 389.289C228.069 391.504 228.522 393.878 228.522 396.276V402.362H76.8341V396.276C76.8341 393.878 77.2868 391.504 78.1664 389.289C79.046 387.073 80.3352 385.061 81.9604 383.365C83.5857 381.67 85.5151 380.325 87.6386 379.407C89.7621 378.49 92.0381 378.017 94.3365 378.017V378.017Z" fill="#338DBF"/>
<path d="M117.673 311.069H129.341V329.328H117.673V311.069Z" fill="#59CEA7"/>
<path d="M233.355 291.766C235.522 294.027 238.095 295.82 240.926 297.043C243.757 298.267 246.792 298.897 249.857 298.897H310.2C313.295 298.897 316.263 300.179 318.451 302.462C320.639 304.745 321.868 307.841 321.868 311.069C321.868 314.297 320.639 317.393 318.451 319.676C316.263 321.959 313.295 323.241 310.2 323.241H238.188C235.124 323.241 232.089 322.612 229.258 321.388C226.427 320.165 223.854 318.372 221.687 316.111L185.474 278.333C184.324 277.134 183.413 275.711 182.791 274.145C182.169 272.578 181.849 270.899 181.849 269.204V269.204C181.849 257.702 195.18 251.941 202.976 260.075L233.355 291.766Z" fill="#0071AF"/>
<path d="M298.532 298.897V323.241H310.2C313.295 323.241 316.263 321.959 318.451 319.676C320.639 317.393 321.868 314.297 321.868 311.069C321.868 307.841 320.639 304.745 318.451 302.462C316.263 300.179 313.295 298.897 310.2 298.897H298.532Z" fill="#FDA5A3"/>
<path d="M100.171 353.672V347.586C100.171 341.13 102.629 334.937 107.006 330.372C111.382 325.806 117.318 323.241 123.507 323.241C129.697 323.241 135.632 325.806 140.009 330.372C144.385 334.937 146.844 341.13 146.844 347.586V353.672H100.171Z" fill="#BDECDC"/>
<path d="M337.198 262.379C341.517 262.379 345.78 263.393 349.673 265.344C353.566 267.296 356.988 270.136 359.686 273.655V273.655C363.612 278.775 365.824 285.095 365.984 291.65C366.145 298.204 364.245 304.634 360.575 309.957L348.017 303.406C345.276 301.976 342.831 299.998 340.823 297.582C338.815 295.167 337.283 292.363 336.314 289.33L327.702 262.379H337.198Z" fill="#CBE2EF"/>
<path d="M354.928 355.701L374.376 408.448H333.537L326.244 385.625L354.928 355.701Z" fill="#338DBF"/>
<path d="M228.522 402.362V435.836C228.522 439.872 230.059 443.742 232.794 446.595C235.529 449.449 239.239 451.052 243.107 451.052H292.527C294.384 451.052 296.215 450.589 297.866 449.703C299.518 448.816 300.942 447.531 302.022 445.954L323.948 413.931C325.109 412.235 326.642 410.853 328.418 409.899C330.195 408.946 332.164 408.448 334.162 408.448H376.877C379.061 408.448 381.207 409.043 383.104 410.173L410.466 426.484C413.274 428.123 415.386 430.807 416.378 434.001C417.37 437.194 417.17 440.66 415.817 443.706C415.037 445.392 413.92 446.884 412.54 448.082C411.161 449.279 409.551 450.154 407.82 450.647C406.088 451.14 404.276 451.24 402.505 450.941C400.733 450.641 399.044 449.949 397.551 448.911L386.066 440.924C384.15 439.591 381.898 438.879 379.594 438.879H347.042C345.185 438.879 343.355 439.342 341.703 440.228C340.052 441.115 338.627 442.4 337.548 443.977L319.524 470.299C318.445 471.876 317.02 473.161 315.369 474.047C313.717 474.934 311.887 475.397 310.029 475.397H158.512C158.512 472.168 157.283 469.072 155.095 466.789C152.906 464.507 149.938 463.224 146.844 463.224C143.749 463.224 140.781 464.507 138.593 466.789C136.405 469.072 135.176 472.168 135.176 475.397H106.005V445.154C106.005 441.505 104.957 437.94 102.996 434.918C101.035 431.897 98.2505 429.557 95.0028 428.202L87.8366 425.212C84.5887 423.857 81.8046 421.517 79.8434 418.495C77.8823 415.474 76.8341 411.908 76.8341 408.259V402.362H228.522Z" fill="#5CA4CC"/>
<path d="M146.844 518C124.289 518 106.005 498.926 106.005 475.397C106.005 451.867 124.289 432.793 146.844 432.793C169.399 432.793 187.683 451.867 187.683 475.397C187.683 498.926 169.399 518 146.844 518Z" fill="#575757"/>
<path d="M146.844 487.569C140.4 487.569 135.176 482.119 135.176 475.397C135.176 468.674 140.4 463.224 146.844 463.224C153.288 463.224 158.512 468.674 158.512 475.397C158.512 482.119 153.288 487.569 146.844 487.569Z" fill="#6E6E6E"/>
<path d="M170.18 280.638V365.845C170.18 369.073 168.951 372.169 166.763 374.452C164.575 376.735 161.607 378.017 158.512 378.017H88.5024C87.4887 378.014 86.4798 377.872 85.5013 377.596C108.657 375.342 130.172 364.153 145.835 346.219C161.497 328.285 170.179 304.899 170.18 280.638Z" fill="#009966"/>
<path d="M216.854 378.017H181.849C178.754 378.017 175.786 376.735 173.598 374.452C171.41 372.169 170.181 369.073 170.181 365.845V329.328C170.181 342.241 175.098 354.625 183.851 363.756C192.604 372.887 204.475 378.017 216.854 378.017Z" fill="#4A4A4A"/>
<path d="M216.854 329.328H170.181V280.638C170.181 293.551 175.098 305.936 183.851 315.067C192.604 324.198 204.475 329.328 216.854 329.328Z" fill="#005686"/>
<path d="M257.693 451.052H243.107C241.192 451.052 239.295 450.658 237.526 449.894C235.756 449.129 234.148 448.008 232.794 446.595C231.44 445.182 230.365 443.505 229.632 441.659C228.899 439.813 228.522 437.834 228.522 435.836V420.621C228.522 428.691 231.595 436.432 237.066 442.139C242.536 447.846 249.956 451.052 257.693 451.052V451.052Z" fill="#005686"/>
<path d="M163.617 514.238C156.059 517.792 147.643 518.861 139.489 517.304C131.334 515.747 123.827 511.638 117.965 505.523C112.103 499.408 108.164 491.576 106.672 483.069C105.18 474.562 106.205 465.783 109.611 457.899C113.544 471.162 120.519 483.225 129.929 493.042C139.34 502.859 150.903 510.135 163.617 514.238V514.238Z" fill="#4A4A4A"/>
<path d="M94.3365 378.017H170.18C147.441 377.984 125.478 386.645 108.445 402.362H76.8341V396.276C76.8341 393.878 77.2868 391.504 78.1663 389.289C79.0459 387.073 80.3351 385.061 81.9604 383.365C83.5857 381.67 85.5151 380.325 87.6386 379.407C89.7621 378.49 92.0381 378.017 94.3365 378.017V378.017Z" fill="#2C78A3"/>
<path d="M89.7259 426L87.8365 425.212C84.5886 423.857 81.8045 421.517 79.8434 418.495C77.8823 415.474 76.8341 411.908 76.8341 408.259V402.362H108.445C101.053 409.166 94.7359 417.143 89.7259 426Z" fill="#4E8CAE"/>
<path d="M181.849 250.207V201.517H240.19V203.638C228.538 206.534 217.707 212.262 208.581 220.355C199.454 228.447 192.291 238.676 187.675 250.207H181.849Z" fill="#D78D8B"/>
<path d="M374.306 408.259L374.376 408.448H333.537L327.084 388.255C340.344 400.064 356.909 407.081 374.306 408.259V408.259Z" fill="#2C78A3"/>
<path d="M146.729 345.174C146.804 345.968 146.844 346.772 146.844 347.586V353.672H138.565C141.451 351.017 144.177 348.179 146.729 345.174Z" fill="#A1C9BC"/>
<path d="M188.628 201.517L209.442 219.612C206.421 222.214 203.597 225.056 200.994 228.112L181.849 211.468V201.517H188.628Z" fill="#3CAA86"/>
<path d="M170.181 171.086C173.916 167.189 178.982 165 184.265 165H237.774C243.057 165 248.123 167.189 251.859 171.086C255.594 174.983 257.693 180.269 257.693 185.78V189.345H269.361V201.517H213.587C210.951 201.517 208.342 202.059 205.907 203.111C203.472 204.163 201.259 205.705 199.395 207.65C197.532 209.594 196.053 211.902 195.045 214.442C194.036 216.982 193.517 219.705 193.517 222.454V222.454C193.517 230.705 187.367 237.732 179.463 238.025C177.505 238.099 175.551 237.761 173.721 237.03C171.89 236.3 170.219 235.192 168.808 233.772C167.397 232.353 166.275 230.652 165.508 228.77C164.741 226.888 164.346 224.864 164.346 222.819V185.78C164.346 180.269 166.445 174.983 170.181 171.086V171.086Z" fill="#0071AF"/>
<path d="M181.849 183.259H193.517V195.431H181.849V183.259Z" fill="#5CA4CC"/>
<path d="M193.41 224.242C193.045 227.898 191.439 231.297 188.881 233.825C186.323 236.352 182.982 237.842 179.463 238.025C177.505 238.099 175.551 237.761 173.721 237.03C171.89 236.3 170.219 235.192 168.808 233.772C167.397 232.353 166.275 230.652 165.508 228.77C164.741 226.888 164.346 224.864 164.346 222.819V185.78C164.347 183.338 164.761 180.916 165.568 178.625C168.912 196.987 178.877 213.312 193.41 224.242V224.242Z" fill="#006095"/>
<path d="M686.527 49.5902L419.612 144.127L475.701 302.487L742.615 207.951L686.527 49.5902Z" fill="#CADE49"/>
<path d="M392.806 131.343L639.925 43.8172L632.914 24.0222L366 118.559L422.089 276.919L441.884 269.908L392.806 131.343Z" fill="#CADE49"/>
<path d="M419.612 144.127L666.731 56.6013L659.72 36.8062L392.806 131.343L448.895 289.703L468.69 282.692L419.612 144.127Z" fill="#9FD343"/>
<path d="M671.082 83.0879L453.336 160.21L491.784 268.763L709.53 191.642L671.082 83.0879Z" fill="#AAD643"/>
<path d="M596.04 218.183C612.968 212.187 620.008 188.458 611.764 165.183C603.52 141.907 583.115 127.899 566.187 133.894C549.259 139.89 542.219 163.619 550.463 186.895C558.707 210.17 579.113 224.179 596.04 218.183Z" fill="#82C736"/>
<path d="M487.818 147.997C494.603 167.153 484.705 187.907 465.549 194.692L453.336 160.21L487.818 147.997Z" fill="#82C736"/>
<path d="M670.443 83.314L682.656 117.796C663.5 124.581 642.747 114.683 635.962 95.5269L670.443 83.314Z" fill="#82C736"/>
<path d="M526.266 256.551L491.784 268.763L479.571 234.282C498.728 227.497 519.481 237.394 526.266 256.551Z" fill="#82C736"/>
<path d="M696.678 157.386L708.891 191.868L674.41 204.08C667.625 184.924 677.522 164.171 696.678 157.386Z" fill="#82C736"/>
<path d="M598.661 174.854C597.344 173.165 593.619 168.735 581.446 170.89L576.697 157.481C579.477 157.215 582.071 158.452 583.841 161.418C585.384 163.746 586.887 163.933 589.441 163.028C590.719 162.576 597.064 158.172 586.874 151.72C585.144 150.895 582.324 149.02 575.074 150.869L573.038 145.122L568.568 146.705L570.604 152.452C558.285 158.253 559.948 167.006 561.305 170.837C565.376 182.331 576.91 180.402 580.329 179.91L585.757 195.235C580.196 195.767 576.884 190.473 575.793 189.422C574.25 187.094 571.695 187.998 571.057 188.224C567.864 189.355 567.718 193 567.944 193.639C568.396 194.916 571.523 201.714 580.542 202.831C582.91 203.43 584.826 202.751 588.245 202.259L590.054 207.367L594.524 205.784L592.488 200.037C595.681 198.907 597.783 196.725 599.885 194.543C604.275 188.676 603.703 180.974 598.661 174.854ZM577.163 170.97C573.518 170.824 570.737 171.09 569.154 166.62C568.476 164.704 567.983 161.286 572.639 158.199L577.163 170.97ZM590.227 193.652L585.025 178.965C592.728 178.393 593.858 181.586 594.537 183.501C594.577 185.643 595.934 189.475 590.227 193.652Z" fill="white"/>
<path d="M532.97 202.433C537.554 200.809 539.955 195.776 538.331 191.192C536.707 186.607 531.674 184.207 527.089 185.831C522.505 187.454 520.105 192.487 521.728 197.072C523.352 201.656 528.385 204.057 532.97 202.433Z" fill="#82C736"/>
<path d="M635.138 166.247C639.722 164.623 642.123 159.59 640.499 155.005C638.875 150.421 633.842 148.021 629.258 149.644C624.673 151.268 622.273 156.301 623.897 160.886C625.52 165.47 630.553 167.87 635.138 166.247Z" fill="#82C736"/>
</svg>
