<?xml version="1.0" encoding="utf-8"?>
<!-- Generator: Adobe Illustrator 24.1.0, SVG Export Plug-In . SVG Version: 6.00 Build 0)  -->
<svg version="1.1" id="Camada_1" xmlns="http://www.w3.org/2000/svg" xmlns:xlink="http://www.w3.org/1999/xlink" x="0px" y="0px"
	 viewBox="0 0 178.18 181.82" style="enable-background:new 0 0 178.18 181.82;" xml:space="preserve">
<style type="text/css">
	.st0{fill:#E1A735;}
</style>
<path class="st0" d="M143.48,76.17c-1.05,0-2.09,0.17-3.08,0.29l-11.96-11.9h15.04V47.14l-21.6,10.8l-16.66-16.61H79.61v11.61h20.85
	l11.61,11.61H91.22L67.99,76.17L56.38,64.56H27.35v11.61h23.23c-12.83,0-23.23,10.39-23.23,23.23s10.39,23.23,23.23,23.23
	S73.8,112.23,73.8,99.4l11.61,11.61h17.42l20.26-35.42l5.86,5.86c-5.28,4.24-8.71,10.68-8.71,17.94c0,12.83,10.39,23.23,23.23,23.23
	s23.23-10.39,23.23-23.23S156.31,76.17,143.48,76.17z M50.57,111.01c-6.39,0-11.61-5.23-11.61-11.61c0-6.39,5.23-11.61,11.61-11.61
	s11.61,5.23,11.61,11.61C62.19,105.79,56.96,111.01,50.57,111.01z M143.48,111.01c-6.39,0-11.61-5.23-11.61-11.61
	c0-6.39,5.23-11.61,11.61-11.61c6.39,0,11.61,5.23,11.61,11.61C155.09,105.79,149.87,111.01,143.48,111.01z"/>
</svg>
