<svg width="205" height="205" viewBox="0 0 205 205" fill="none" xmlns="http://www.w3.org/2000/svg">
<path d="M102.5 0C45.9824 0 0 45.9824 0 102.5C0 159.018 45.9824 205 102.5 205C159.018 205 205 159.018 205 102.5C205 45.9824 159.018 0 102.5 0Z" fill="#303C42"/>
<path d="M102.5 196.458C50.6912 196.458 8.54175 154.309 8.54175 102.5C8.54175 50.6911 50.6912 8.54166 102.5 8.54166C154.309 8.54166 196.458 50.6911 196.458 102.5C196.458 154.309 154.309 196.458 102.5 196.458Z" fill="#FED600"/>
<path opacity="0.1" d="M163.315 31.0084C177.293 47.4145 185.782 68.6315 185.782 91.8229C185.782 143.632 143.633 185.781 91.8238 185.781C68.6324 185.781 47.4154 177.292 31.0093 163.315C48.2568 183.559 73.8834 196.458 102.501 196.458C154.31 196.458 196.459 154.309 196.459 102.5C196.459 73.8825 183.56 48.2559 163.315 31.0084Z" fill="#010101"/>
<path d="M157.507 119.763C155.184 119.208 152.902 120.634 152.364 122.928C146.859 146.105 126.355 162.292 102.499 162.292C78.613 162.292 58.1013 146.08 52.6209 122.874C52.0746 120.572 49.7598 119.175 47.4826 119.696C45.1845 120.238 43.7623 122.54 44.3045 124.834C50.7024 151.919 74.6341 170.833 102.499 170.833C130.33 170.833 154.253 151.948 160.672 124.905C161.219 122.607 159.801 120.305 157.507 119.763Z" fill="#303C42"/>
<path d="M51.2499 85.4167C51.2499 75.995 58.9116 68.3333 68.3333 68.3333C77.7549 68.3333 85.4166 75.995 85.4166 85.4167C85.4166 87.7773 87.3268 89.6875 89.6874 89.6875C92.0481 89.6875 93.9583 87.7773 93.9583 85.4167C93.9583 71.2862 82.4637 59.7917 68.3333 59.7917C54.2028 59.7917 42.7083 71.2862 42.7083 85.4167C42.7083 87.7773 44.6184 89.6875 46.9791 89.6875C49.3397 89.6875 51.2499 87.7773 51.2499 85.4167Z" fill="#303C42"/>
<path d="M136.667 59.7917C122.536 59.7917 111.042 71.2862 111.042 85.4167C111.042 87.7773 112.952 89.6875 115.313 89.6875C117.673 89.6875 119.583 87.7773 119.583 85.4167C119.583 75.995 127.245 68.3333 136.667 68.3333C146.088 68.3333 153.75 75.995 153.75 85.4167C153.75 87.7773 155.66 89.6875 158.021 89.6875C160.382 89.6875 162.292 87.7773 162.292 85.4167C162.292 71.2862 150.797 59.7917 136.667 59.7917Z" fill="#303C42"/>
<path d="M102.5 0C45.9824 0 0 45.9824 0 102.5C0 159.018 45.9824 205 102.5 205C159.018 205 205 159.018 205 102.5C205 45.9824 159.018 0 102.5 0Z" fill="url(#paint0_linear)"/>
<defs>
<linearGradient id="paint0_linear" x1="9.60868" y1="59.1841" x2="195.391" y2="145.816" gradientUnits="userSpaceOnUse">
<stop stop-color="white" stop-opacity="0.2"/>
<stop offset="1" stop-color="white" stop-opacity="0"/>
</linearGradient>
</defs>
</svg>
